<svg xmlns="http://www.w3.org/2000/svg" viewBox="0 0 2048 1152" width="2048" height="1152">
<style>
text { font-family: 'Microsoft YaHei', 'PingFang SC', 'SimHei', 'Helvetica Neue', Arial, sans-serif; }
.title { font-size: 44px; font-weight: 700; fill: #0f172a; }
.label { font-size: 31px; font-weight: 700; fill: #111827; }
.small { font-size: 25px; font-weight: 600; fill: #374151; }
.hint { font-size: 22px; font-weight: 600; fill: #6b7280; }
</style>
<defs>
<marker id="arrow-blue" markerWidth="12" markerHeight="9" refX="11" refY="4.5" orient="auto"><polygon points="0 0, 12 4.5, 0 9" fill="#2563eb"/></marker>
<marker id="arrow-red" markerWidth="12" markerHeight="9" refX="11" refY="4.5" orient="auto"><polygon points="0 0, 12 4.5, 0 9" fill="#dc2626"/></marker>
<marker id="arrow-green" markerWidth="12" markerHeight="9" refX="11" refY="4.5" orient="auto"><polygon points="0 0, 12 4.5, 0 9" fill="#16a34a"/></marker>
<marker id="arrow-orange" markerWidth="12" markerHeight="9" refX="11" refY="4.5" orient="auto"><polygon points="0 0, 12 4.5, 0 9" fill="#ea580c"/></marker>
<marker id="arrow-purple" markerWidth="12" markerHeight="9" refX="11" refY="4.5" orient="auto"><polygon points="0 0, 12 4.5, 0 9" fill="#7c3aed"/></marker>
<marker id="arrow-cyan" markerWidth="12" markerHeight="9" refX="11" refY="4.5" orient="auto"><polygon points="0 0, 12 4.5, 0 9" fill="#0891b2"/></marker>
<marker id="arrow-gray" markerWidth="12" markerHeight="9" refX="11" refY="4.5" orient="auto"><polygon points="0 0, 12 4.5, 0 9" fill="#6b7280"/></marker>
</defs>
<rect width="2048" height="1152" fill="#ffffff"/>
<text x="1024.0" y="92" text-anchor="middle" class="title">聆安 Watch 功能总览图</text>
<rect x="824.0" y="440" width="400" height="280" rx="20" fill="#ecfeff" stroke="#a5f3fc" stroke-width="3"/>
<g transform="translate(1024.0 528) scale(0.82) translate(-1024.0 -528)"><rect x="990.0" y="484" width="68" height="88" rx="18" fill="#ffffff" stroke="#a5f3fc" stroke-width="4"/><rect x="1006.0" y="464" width="36" height="22" rx="8" fill="#a5f3fc" opacity="0.22"/><rect x="1006.0" y="570" width="36" height="22" rx="8" fill="#a5f3fc" opacity="0.22"/><circle cx="1024.0" cy="528" r="12" fill="#a5f3fc"/></g>
<text x="1024.0" y="662.0" text-anchor="middle" class="label">ESP32-S3 手表</text>
<rect x="300" y="255" width="370" height="210" rx="20" fill="#fef2f2" stroke="#fecaca" stroke-width="3"/>
<g transform="translate(485.0 321) scale(0.7) translate(-485.0 -321)"><rect x="469.0" y="279" width="32" height="58" rx="16" fill="#ffffff" stroke="#eecaca" stroke-width="4"/><path d="M 451.0,311 Q 485.0,361 519.0,311" stroke="#eecaca" stroke-width="4" fill="none"/><line x1="485.0" y1="361" x2="485.0" y2="385" stroke="#eecaca" stroke-width="4"/><line x1="459.0" y1="385" x2="511.0" y2="385" stroke="#eecaca" stroke-width="4"/></g>
<text x="485.0" y="421.0" text-anchor="middle" class="label">危险声识别</text>
<rect x="300" y="760" width="370" height="210" rx="20" fill="#fff7ed" stroke="#fed7aa" stroke-width="3"/>
<g transform="translate(485.0 826) scale(0.7) translate(-485.0 -826)"><rect x="455.0" y="776" width="60" height="100" rx="14" fill="#ffffff" stroke="#eed7aa" stroke-width="4"/><rect x="463.0" y="808" width="44" height="28" rx="7" fill="#eed7aa" opacity="0.20"/><circle cx="485.0" cy="861" r="5" fill="#eed7aa"/></g>
<text x="485.0" y="926.0" text-anchor="middle" class="label">本地提醒</text>
<rect x="1378" y="255" width="370" height="210" rx="20" fill="#faf5ff" stroke="#ddd6fe" stroke-width="3"/>
<g transform="translate(1563.0 321) scale(0.7) translate(-1563.0 -321)"><path d="M 1518.0,321 C 1513.0,289 1551.0,273 1563.0,297 C 1581.0,271 1619.0,295 1605.0,329 C 1617.0,357 1577.0,373 1563.0,349 C 1545.0,375 1505.0,351 1518.0,321 Z" fill="#ffffff" stroke="#ddd6fe" stroke-width="4"/><path d="M 1541.0,305 C 1558.0,317 1547.0,333 1563.0,345 M 1583.0,303 C 1567.0,317 1583.0,331 1565.0,349" stroke="#ddd6fe" stroke-width="3" fill="none" opacity="0.65"/></g>
<text x="1563.0" y="421.0" text-anchor="middle" class="label">任务辅助</text>
<rect x="1378" y="760" width="370" height="210" rx="20" fill="#f0fdf4" stroke="#bbf7d0" stroke-width="3"/>
<g transform="translate(1563.0 826) scale(0.7) translate(-1563.0 -826)"><path d="M 1525.0,776 L 1581.0,776 L 1601.0,796 L 1601.0,876 L 1525.0,876 Z" fill="#ffffff" stroke="#bbf7d0" stroke-width="4"/><rect x="1541.0" y="788" width="12" height="24" fill="#bbf7d0" opacity="0.55"/><rect x="1559.0" y="788" width="12" height="24" fill="#bbf7d0" opacity="0.55"/><rect x="1577.0" y="788" width="12" height="24" fill="#bbf7d0" opacity="0.55"/></g>
<text x="1563.0" y="926.0" text-anchor="middle" class="label">样本闭环</text>
<line x1="670" y1="360" x2="824" y2="465" stroke="#dc2626" stroke-width="4" fill="none" marker-end="url(#arrow-red)"/>
<line x1="824" y1="700" x2="670" y2="865" stroke="#ea580c" stroke-width="4" fill="none" marker-end="url(#arrow-orange)"/>
<line x1="1224" y1="465" x2="1378" y2="360" stroke="#7c3aed" stroke-width="4" fill="none" marker-end="url(#arrow-purple)"/>
<line x1="1224" y1="700" x2="1378" y2="865" stroke="#16a34a" stroke-width="4" fill="none" stroke-dasharray="10,8" marker-end="url(#arrow-green)"/>
<path d="M 1565,760 C 1470,610 1290,525 1225,515" stroke="#16a34a" stroke-width="4" fill="none" stroke-dasharray="10,8" marker-end="url(#arrow-green)"/>
</svg>