<svg xmlns="http://www.w3.org/2000/svg" viewBox="0 0 2048 1152" width="2048" height="1152">
<style>
text { font-family: 'Microsoft YaHei', 'PingFang SC', 'SimHei', 'Helvetica Neue', Arial, sans-serif; }
.title { font-size: 44px; font-weight: 700; fill: #0f172a; }
.label { font-size: 31px; font-weight: 700; fill: #111827; }
.small { font-size: 25px; font-weight: 600; fill: #374151; }
.hint { font-size: 22px; font-weight: 600; fill: #6b7280; }
</style>
<defs>
<marker id="arrow-blue" markerWidth="12" markerHeight="9" refX="11" refY="4.5" orient="auto"><polygon points="0 0, 12 4.5, 0 9" fill="#2563eb"/></marker>
<marker id="arrow-red" markerWidth="12" markerHeight="9" refX="11" refY="4.5" orient="auto"><polygon points="0 0, 12 4.5, 0 9" fill="#dc2626"/></marker>
<marker id="arrow-green" markerWidth="12" markerHeight="9" refX="11" refY="4.5" orient="auto"><polygon points="0 0, 12 4.5, 0 9" fill="#16a34a"/></marker>
<marker id="arrow-orange" markerWidth="12" markerHeight="9" refX="11" refY="4.5" orient="auto"><polygon points="0 0, 12 4.5, 0 9" fill="#ea580c"/></marker>
<marker id="arrow-purple" markerWidth="12" markerHeight="9" refX="11" refY="4.5" orient="auto"><polygon points="0 0, 12 4.5, 0 9" fill="#7c3aed"/></marker>
<marker id="arrow-cyan" markerWidth="12" markerHeight="9" refX="11" refY="4.5" orient="auto"><polygon points="0 0, 12 4.5, 0 9" fill="#0891b2"/></marker>
<marker id="arrow-gray" markerWidth="12" markerHeight="9" refX="11" refY="4.5" orient="auto"><polygon points="0 0, 12 4.5, 0 9" fill="#6b7280"/></marker>
</defs>
<rect width="2048" height="1152" fill="#ffffff"/>
<text x="1024.0" y="92" text-anchor="middle" class="title">设计流程图</text>
<rect x="115" y="460" width="250" height="210" rx="20" fill="#eff6ff" stroke="#bfdbfe" stroke-width="3"/>
<g transform="translate(240.0 526) scale(0.7) translate(-240.0 -526)"><circle cx="240.0" cy="502" r="18" fill="#ffffff" stroke="#bfdbfe" stroke-width="4"/><path d="M 204.0,574 Q 206.0,530 240.0,530 Q 274.0,530 276.0,574" fill="#ffffff" stroke="#bfdbfe" stroke-width="4"/></g>
<text x="240.0" y="626.0" text-anchor="middle" class="label">需求分析</text>
<line x1="365" y1="565" x2="445" y2="565" stroke="#2563eb" stroke-width="4" fill="none" marker-end="url(#arrow-blue)"/>
<rect x="445" y="460" width="250" height="210" rx="20" fill="#ecfeff" stroke="#a5f3fc" stroke-width="3"/>
<g transform="translate(570.0 526) scale(0.7) translate(-570.0 -526)"><path d="M 522.0,544 C 512.0,508 552.0,498 566.0,514 C 584.0,484 632.0,502 624.0,542 C 640.0,546 628.0,572 608.0,570 L 534.0,570 C 508.0,570 502.0,548 522.0,544 Z" fill="#ffffff" stroke="#a5f3fc" stroke-width="4"/></g>
<text x="570.0" y="626.0" text-anchor="middle" class="label">系统架构</text>
<line x1="695" y1="565" x2="775" y2="565" stroke="#2563eb" stroke-width="4" fill="none" marker-end="url(#arrow-blue)"/>
<rect x="775" y="460" width="250" height="210" rx="20" fill="#eff6ff" stroke="#bfdbfe" stroke-width="3"/>
<g transform="translate(900.0 526) scale(0.7) translate(-900.0 -526)"><rect x="884.0" y="484" width="32" height="58" rx="16" fill="#ffffff" stroke="#bfdbfe" stroke-width="4"/><path d="M 866.0,516 Q 900.0,566 934.0,516" stroke="#bfdbfe" stroke-width="4" fill="none"/><line x1="900.0" y1="566" x2="900.0" y2="590" stroke="#bfdbfe" stroke-width="4"/><line x1="874.0" y1="590" x2="926.0" y2="590" stroke="#bfdbfe" stroke-width="4"/></g>
<text x="900.0" y="626.0" text-anchor="middle" class="label">端侧识别</text>
<line x1="1025" y1="565" x2="1105" y2="565" stroke="#2563eb" stroke-width="4" fill="none" marker-end="url(#arrow-blue)"/>
<rect x="1105" y="460" width="250" height="210" rx="20" fill="#fef2f2" stroke="#fecaca" stroke-width="3"/>
<g transform="translate(1230.0 526) scale(0.7) translate(-1230.0 -526)"><path d="M 1186.0,562 L 1196.0,518 Q 1230.0,470 1264.0,518 L 1274.0,562 Z" fill="#ffffff" stroke="#eecaca" stroke-width="4"/><circle cx="1230.0" cy="534" r="13" fill="#eecaca" opacity="0.7"/><path d="M 1174.0,496 L 1154.0,476 M 1286.0,496 L 1306.0,476" stroke="#eecaca" stroke-width="5"/></g>
<text x="1230.0" y="626.0" text-anchor="middle" class="label">状态机提醒</text>
<line x1="1355" y1="565" x2="1435" y2="565" stroke="#2563eb" stroke-width="4" fill="none" marker-end="url(#arrow-blue)"/>
<rect x="1435" y="460" width="250" height="210" rx="20" fill="#faf5ff" stroke="#ddd6fe" stroke-width="3"/>
<g transform="translate(1560.0 526) scale(0.7) translate(-1560.0 -526)"><path d="M 1515.0,526 C 1510.0,494 1548.0,478 1560.0,502 C 1578.0,476 1616.0,500 1602.0,534 C 1614.0,562 1574.0,578 1560.0,554 C 1542.0,580 1502.0,556 1515.0,526 Z" fill="#ffffff" stroke="#ddd6fe" stroke-width="4"/><path d="M 1538.0,510 C 1555.0,522 1544.0,538 1560.0,550 M 1580.0,508 C 1564.0,522 1580.0,536 1562.0,554" stroke="#ddd6fe" stroke-width="3" fill="none" opacity="0.65"/></g>
<text x="1560.0" y="626.0" text-anchor="middle" class="label">任务辅助</text>
<line x1="1685" y1="565" x2="1765" y2="565" stroke="#ea580c" stroke-width="4" fill="none" marker-end="url(#arrow-orange)"/>
<rect x="1765" y="460" width="250" height="210" rx="20" fill="#fff7ed" stroke="#fed7aa" stroke-width="3"/>
<g transform="translate(1890.0 526) scale(0.7) translate(-1890.0 -526)"><line x1="1842.0" y1="474" x2="1842.0" y2="458" stroke="#eed7aa" stroke-width="4"/><line x1="1842.0" y1="578" x2="1842.0" y2="594" stroke="#eed7aa" stroke-width="4"/><line x1="1866.0" y1="474" x2="1866.0" y2="458" stroke="#eed7aa" stroke-width="4"/><line x1="1866.0" y1="578" x2="1866.0" y2="594" stroke="#eed7aa" stroke-width="4"/><line x1="1890.0" y1="474" x2="1890.0" y2="458" stroke="#eed7aa" stroke-width="4"/><line x1="1890.0" y1="578" x2="1890.0" y2="594" stroke="#eed7aa" stroke-width="4"/><line x1="1914.0" y1="474" x2="1914.0" y2="458" stroke="#eed7aa" stroke-width="4"/><line x1="1914.0" y1="578" x2="1914.0" y2="594" stroke="#eed7aa" stroke-width="4"/><line x1="1938.0" y1="474" x2="1938.0" y2="458" stroke="#eed7aa" stroke-width="4"/><line x1="1938.0" y1="578" x2="1938.0" y2="594" stroke="#eed7aa" stroke-width="4"/><rect x="1828.0" y="474" width="124" height="104" rx="14" fill="#ffffff" stroke="#eed7aa" stroke-width="4"/><rect x="1862.0" y="504" width="56" height="44" rx="8" fill="#eed7aa" opacity="0.2"/></g>
<text x="1890.0" y="626.0" text-anchor="middle" class="label">闭环优化</text>
</svg>