<svg xmlns="http://www.w3.org/2000/svg" viewBox="0 0 2048 1152" width="2048" height="1152">
<style>
text { font-family: 'Microsoft YaHei', 'PingFang SC', 'SimHei', 'Helvetica Neue', Arial, sans-serif; }
.title { font-size: 44px; font-weight: 700; fill: #0f172a; }
.label { font-size: 31px; font-weight: 700; fill: #111827; }
.small { font-size: 25px; font-weight: 600; fill: #374151; }
.hint { font-size: 22px; font-weight: 600; fill: #6b7280; }
</style>
<defs>
<marker id="arrow-blue" markerWidth="12" markerHeight="9" refX="11" refY="4.5" orient="auto"><polygon points="0 0, 12 4.5, 0 9" fill="#2563eb"/></marker>
<marker id="arrow-red" markerWidth="12" markerHeight="9" refX="11" refY="4.5" orient="auto"><polygon points="0 0, 12 4.5, 0 9" fill="#dc2626"/></marker>
<marker id="arrow-green" markerWidth="12" markerHeight="9" refX="11" refY="4.5" orient="auto"><polygon points="0 0, 12 4.5, 0 9" fill="#16a34a"/></marker>
<marker id="arrow-orange" markerWidth="12" markerHeight="9" refX="11" refY="4.5" orient="auto"><polygon points="0 0, 12 4.5, 0 9" fill="#ea580c"/></marker>
<marker id="arrow-purple" markerWidth="12" markerHeight="9" refX="11" refY="4.5" orient="auto"><polygon points="0 0, 12 4.5, 0 9" fill="#7c3aed"/></marker>
<marker id="arrow-cyan" markerWidth="12" markerHeight="9" refX="11" refY="4.5" orient="auto"><polygon points="0 0, 12 4.5, 0 9" fill="#0891b2"/></marker>
<marker id="arrow-gray" markerWidth="12" markerHeight="9" refX="11" refY="4.5" orient="auto"><polygon points="0 0, 12 4.5, 0 9" fill="#6b7280"/></marker>
</defs>
<rect width="2048" height="1152" fill="#ffffff"/>
<text x="1024.0" y="92" text-anchor="middle" class="title">端侧危险声识别流程图</text>
<rect x="180" y="330" width="300" height="170" rx="20" fill="#eff6ff" stroke="#bfdbfe" stroke-width="3"/>
<g transform="translate(330.0 385) scale(0.62) translate(-330.0 -385)"><rect x="314.0" y="343" width="32" height="58" rx="16" fill="#ffffff" stroke="#bfdbfe" stroke-width="4"/><path d="M 296.0,375 Q 330.0,425 364.0,375" stroke="#bfdbfe" stroke-width="4" fill="none"/><line x1="330.0" y1="425" x2="330.0" y2="449" stroke="#bfdbfe" stroke-width="4"/><line x1="304.0" y1="449" x2="356.0" y2="449" stroke="#bfdbfe" stroke-width="4"/></g>
<text x="330.0" y="462.0" text-anchor="middle" class="small">麦克风采集</text>
<line x1="480" y1="415" x2="600" y2="415" stroke="#2563eb" stroke-width="4" fill="none" marker-end="url(#arrow-blue)"/>
<rect x="600" y="330" width="300" height="170" rx="20" fill="#eff6ff" stroke="#bfdbfe" stroke-width="3"/>
<g transform="translate(750.0 385) scale(0.62) translate(-750.0 -385)"><path d="M 686.0,385 C 706.0,341 726.0,429 746.0,385 C 766.0,341 786.0,429 814.0,385" stroke="#bfdbfe" stroke-width="5" fill="none"/></g>
<text x="750.0" y="462.0" text-anchor="middle" class="small">滑窗重采样</text>
<line x1="900" y1="415" x2="1020" y2="415" stroke="#2563eb" stroke-width="4" fill="none" marker-end="url(#arrow-blue)"/>
<rect x="1020" y="330" width="300" height="170" rx="20" fill="#eff6ff" stroke="#bfdbfe" stroke-width="3"/>
<g transform="translate(1170.0 385) scale(0.62) translate(-1170.0 -385)"><line x1="1122.0" y1="333" x2="1122.0" y2="317" stroke="#bfdbfe" stroke-width="4"/><line x1="1122.0" y1="437" x2="1122.0" y2="453" stroke="#bfdbfe" stroke-width="4"/><line x1="1146.0" y1="333" x2="1146.0" y2="317" stroke="#bfdbfe" stroke-width="4"/><line x1="1146.0" y1="437" x2="1146.0" y2="453" stroke="#bfdbfe" stroke-width="4"/><line x1="1170.0" y1="333" x2="1170.0" y2="317" stroke="#bfdbfe" stroke-width="4"/><line x1="1170.0" y1="437" x2="1170.0" y2="453" stroke="#bfdbfe" stroke-width="4"/><line x1="1194.0" y1="333" x2="1194.0" y2="317" stroke="#bfdbfe" stroke-width="4"/><line x1="1194.0" y1="437" x2="1194.0" y2="453" stroke="#bfdbfe" stroke-width="4"/><line x1="1218.0" y1="333" x2="1218.0" y2="317" stroke="#bfdbfe" stroke-width="4"/><line x1="1218.0" y1="437" x2="1218.0" y2="453" stroke="#bfdbfe" stroke-width="4"/><rect x="1108.0" y="333" width="124" height="104" rx="14" fill="#ffffff" stroke="#bfdbfe" stroke-width="4"/><rect x="1142.0" y="363" width="56" height="44" rx="8" fill="#bfdbfe" opacity="0.2"/></g>
<text x="1170.0" y="462.0" text-anchor="middle" class="small">Fbank 特征</text>
<line x1="1320" y1="415" x2="1440" y2="415" stroke="#2563eb" stroke-width="4" fill="none" marker-end="url(#arrow-blue)"/>
<rect x="1440" y="330" width="300" height="170" rx="20" fill="#eff6ff" stroke="#bfdbfe" stroke-width="3"/>
<g transform="translate(1590.0 385) scale(0.62) translate(-1590.0 -385)"><path d="M 1545.0,385 C 1540.0,353 1578.0,337 1590.0,361 C 1608.0,335 1646.0,359 1632.0,393 C 1644.0,421 1604.0,437 1590.0,413 C 1572.0,439 1532.0,415 1545.0,385 Z" fill="#ffffff" stroke="#bfdbfe" stroke-width="4"/><path d="M 1568.0,369 C 1585.0,381 1574.0,397 1590.0,409 M 1610.0,367 C 1594.0,381 1610.0,395 1592.0,413" stroke="#bfdbfe" stroke-width="3" fill="none" opacity="0.65"/></g>
<text x="1590.0" y="462.0" text-anchor="middle" class="small">ESP-DL 推理</text>
<rect x="1440" y="710" width="300" height="170" rx="20" fill="#eff6ff" stroke="#bfdbfe" stroke-width="3"/>
<g transform="translate(1590.0 765) scale(0.62) translate(-1590.0 -765)"><path d="M 1526.0,765 C 1546.0,721 1566.0,809 1586.0,765 C 1606.0,721 1626.0,809 1654.0,765" stroke="#bfdbfe" stroke-width="5" fill="none"/></g>
<text x="1590.0" y="842.0" text-anchor="middle" class="small">单窗输出</text>
<rect x="1020" y="710" width="300" height="170" rx="20" fill="#f0fdf4" stroke="#bbf7d0" stroke-width="3"/>
<g transform="translate(1170.0 765) scale(0.62) translate(-1170.0 -765)"><line x1="1122.0" y1="713" x2="1122.0" y2="697" stroke="#bbf7d0" stroke-width="4"/><line x1="1122.0" y1="817" x2="1122.0" y2="833" stroke="#bbf7d0" stroke-width="4"/><line x1="1146.0" y1="713" x2="1146.0" y2="697" stroke="#bbf7d0" stroke-width="4"/><line x1="1146.0" y1="817" x2="1146.0" y2="833" stroke="#bbf7d0" stroke-width="4"/><line x1="1170.0" y1="713" x2="1170.0" y2="697" stroke="#bbf7d0" stroke-width="4"/><line x1="1170.0" y1="817" x2="1170.0" y2="833" stroke="#bbf7d0" stroke-width="4"/><line x1="1194.0" y1="713" x2="1194.0" y2="697" stroke="#bbf7d0" stroke-width="4"/><line x1="1194.0" y1="817" x2="1194.0" y2="833" stroke="#bbf7d0" stroke-width="4"/><line x1="1218.0" y1="713" x2="1218.0" y2="697" stroke="#bbf7d0" stroke-width="4"/><line x1="1218.0" y1="817" x2="1218.0" y2="833" stroke="#bbf7d0" stroke-width="4"/><rect x="1108.0" y="713" width="124" height="104" rx="14" fill="#ffffff" stroke="#bbf7d0" stroke-width="4"/><rect x="1142.0" y="743" width="56" height="44" rx="8" fill="#bbf7d0" opacity="0.2"/></g>
<text x="1170.0" y="842.0" text-anchor="middle" class="small">证据融合</text>
<rect x="600" y="710" width="300" height="170" rx="20" fill="#fef2f2" stroke="#fecaca" stroke-width="3"/>
<g transform="translate(750.0 765) scale(0.62) translate(-750.0 -765)"><rect x="720.0" y="715" width="60" height="100" rx="14" fill="#ffffff" stroke="#eecaca" stroke-width="4"/><rect x="728.0" y="747" width="44" height="28" rx="7" fill="#eecaca" opacity="0.20"/><circle cx="750.0" cy="800" r="5" fill="#eecaca"/></g>
<text x="750.0" y="842.0" text-anchor="middle" class="small">本地提醒</text>
<line x1="1590" y1="500" x2="1590" y2="710" stroke="#2563eb" stroke-width="4" fill="none" marker-end="url(#arrow-blue)"/>
<line x1="1440" y1="795" x2="1320" y2="795" stroke="#16a34a" stroke-width="4" fill="none" marker-end="url(#arrow-green)"/>
<line x1="1020" y1="795" x2="900" y2="795" stroke="#dc2626" stroke-width="4" fill="none" marker-end="url(#arrow-red)"/>
</svg>