<svg xmlns="http://www.w3.org/2000/svg" viewBox="0 0 2048 1152" width="2048" height="1152">
<style>
text { font-family: 'Microsoft YaHei', 'PingFang SC', 'SimHei', 'Helvetica Neue', Arial, sans-serif; }
.title { font-size: 44px; font-weight: 700; fill: #0f172a; }
.label { font-size: 31px; font-weight: 700; fill: #111827; }
.small { font-size: 25px; font-weight: 600; fill: #374151; }
.hint { font-size: 22px; font-weight: 600; fill: #6b7280; }
</style>
<defs>
<marker id="arrow-blue" markerWidth="12" markerHeight="9" refX="11" refY="4.5" orient="auto"><polygon points="0 0, 12 4.5, 0 9" fill="#2563eb"/></marker>
<marker id="arrow-red" markerWidth="12" markerHeight="9" refX="11" refY="4.5" orient="auto"><polygon points="0 0, 12 4.5, 0 9" fill="#dc2626"/></marker>
<marker id="arrow-green" markerWidth="12" markerHeight="9" refX="11" refY="4.5" orient="auto"><polygon points="0 0, 12 4.5, 0 9" fill="#16a34a"/></marker>
<marker id="arrow-orange" markerWidth="12" markerHeight="9" refX="11" refY="4.5" orient="auto"><polygon points="0 0, 12 4.5, 0 9" fill="#ea580c"/></marker>
<marker id="arrow-purple" markerWidth="12" markerHeight="9" refX="11" refY="4.5" orient="auto"><polygon points="0 0, 12 4.5, 0 9" fill="#7c3aed"/></marker>
<marker id="arrow-cyan" markerWidth="12" markerHeight="9" refX="11" refY="4.5" orient="auto"><polygon points="0 0, 12 4.5, 0 9" fill="#0891b2"/></marker>
<marker id="arrow-gray" markerWidth="12" markerHeight="9" refX="11" refY="4.5" orient="auto"><polygon points="0 0, 12 4.5, 0 9" fill="#6b7280"/></marker>
</defs>
<rect width="2048" height="1152" fill="#ffffff"/>
<text x="1024.0" y="92" text-anchor="middle" class="title">数据闭环与模型优化流程图</text>
<rect x="165" y="305" width="290" height="180" rx="20" fill="#fef2f2" stroke="#fecaca" stroke-width="3"/>
<g transform="translate(310.0 360) scale(0.62) translate(-310.0 -360)"><path d="M 266.0,396 L 276.0,352 Q 310.0,304 344.0,352 L 354.0,396 Z" fill="#ffffff" stroke="#eecaca" stroke-width="4"/><circle cx="310.0" cy="368" r="13" fill="#eecaca" opacity="0.7"/><path d="M 254.0,330 L 234.0,310 M 366.0,330 L 386.0,310" stroke="#eecaca" stroke-width="5"/></g>
<text x="310.0" y="447.0" text-anchor="middle" class="small">危险告警</text>
<rect x="570" y="305" width="290" height="180" rx="20" fill="#eff6ff" stroke="#bfdbfe" stroke-width="3"/>
<g transform="translate(715.0 360) scale(0.62) translate(-715.0 -360)"><path d="M 651.0,360 C 671.0,316 691.0,404 711.0,360 C 731.0,316 751.0,404 779.0,360" stroke="#bfdbfe" stroke-width="5" fill="none"/></g>
<text x="715.0" y="447.0" text-anchor="middle" class="small">连续 PCM</text>
<rect x="975" y="305" width="290" height="180" rx="20" fill="#fff7ed" stroke="#fed7aa" stroke-width="3"/>
<g transform="translate(1120.0 360) scale(0.62) translate(-1120.0 -360)"><path d="M 1082.0,310 L 1138.0,310 L 1158.0,330 L 1158.0,410 L 1082.0,410 Z" fill="#ffffff" stroke="#eed7aa" stroke-width="4"/><rect x="1098.0" y="322" width="12" height="24" fill="#eed7aa" opacity="0.55"/><rect x="1116.0" y="322" width="12" height="24" fill="#eed7aa" opacity="0.55"/><rect x="1134.0" y="322" width="12" height="24" fill="#eed7aa" opacity="0.55"/></g>
<text x="1120.0" y="447.0" text-anchor="middle" class="small">SD 本地缓存</text>
<rect x="1380" y="305" width="290" height="180" rx="20" fill="#f0fdf4" stroke="#bbf7d0" stroke-width="3"/>
<g transform="translate(1525.0 360) scale(0.62) translate(-1525.0 -360)"><path d="M 1477.0,378 C 1467.0,342 1507.0,332 1521.0,348 C 1539.0,318 1587.0,336 1579.0,376 C 1595.0,380 1583.0,406 1563.0,404 L 1489.0,404 C 1463.0,404 1457.0,382 1477.0,378 Z" fill="#ffffff" stroke="#bbf7d0" stroke-width="4"/></g>
<text x="1525.0" y="447.0" text-anchor="middle" class="small">人工导出</text>
<rect x="1380" y="715" width="290" height="180" rx="20" fill="#fff7ed" stroke="#fed7aa" stroke-width="3"/>
<g transform="translate(1525.0 770) scale(0.62) translate(-1525.0 -770)"><path d="M 1487.0,720 L 1543.0,720 L 1563.0,740 L 1563.0,820 L 1487.0,820 Z" fill="#ffffff" stroke="#eed7aa" stroke-width="4"/><rect x="1503.0" y="732" width="12" height="24" fill="#eed7aa" opacity="0.55"/><rect x="1521.0" y="732" width="12" height="24" fill="#eed7aa" opacity="0.55"/><rect x="1539.0" y="732" width="12" height="24" fill="#eed7aa" opacity="0.55"/></g>
<text x="1525.0" y="857.0" text-anchor="middle" class="small">样本积累</text>
<rect x="975" y="715" width="290" height="180" rx="20" fill="#eff6ff" stroke="#bfdbfe" stroke-width="3"/>
<g transform="translate(1120.0 770) scale(0.62) translate(-1120.0 -770)"><path d="M 1056.0,770 C 1076.0,726 1096.0,814 1116.0,770 C 1136.0,726 1156.0,814 1184.0,770" stroke="#bfdbfe" stroke-width="5" fill="none"/></g>
<text x="1120.0" y="857.0" text-anchor="middle" class="small">误报分析</text>
<rect x="570" y="715" width="290" height="180" rx="20" fill="#faf5ff" stroke="#ddd6fe" stroke-width="3"/>
<g transform="translate(715.0 770) scale(0.62) translate(-715.0 -770)"><path d="M 670.0,770 C 665.0,738 703.0,722 715.0,746 C 733.0,720 771.0,744 757.0,778 C 769.0,806 729.0,822 715.0,798 C 697.0,824 657.0,800 670.0,770 Z" fill="#ffffff" stroke="#ddd6fe" stroke-width="4"/><path d="M 693.0,754 C 710.0,766 699.0,782 715.0,794 M 735.0,752 C 719.0,766 735.0,780 717.0,798" stroke="#ddd6fe" stroke-width="3" fill="none" opacity="0.65"/></g>
<text x="715.0" y="857.0" text-anchor="middle" class="small">训练优化</text>
<rect x="165" y="715" width="290" height="180" rx="20" fill="#ecfeff" stroke="#a5f3fc" stroke-width="3"/>
<g transform="translate(310.0 770) scale(0.62) translate(-310.0 -770)"><line x1="262.0" y1="718" x2="262.0" y2="702" stroke="#a5f3fc" stroke-width="4"/><line x1="262.0" y1="822" x2="262.0" y2="838" stroke="#a5f3fc" stroke-width="4"/><line x1="286.0" y1="718" x2="286.0" y2="702" stroke="#a5f3fc" stroke-width="4"/><line x1="286.0" y1="822" x2="286.0" y2="838" stroke="#a5f3fc" stroke-width="4"/><line x1="310.0" y1="718" x2="310.0" y2="702" stroke="#a5f3fc" stroke-width="4"/><line x1="310.0" y1="822" x2="310.0" y2="838" stroke="#a5f3fc" stroke-width="4"/><line x1="334.0" y1="718" x2="334.0" y2="702" stroke="#a5f3fc" stroke-width="4"/><line x1="334.0" y1="822" x2="334.0" y2="838" stroke="#a5f3fc" stroke-width="4"/><line x1="358.0" y1="718" x2="358.0" y2="702" stroke="#a5f3fc" stroke-width="4"/><line x1="358.0" y1="822" x2="358.0" y2="838" stroke="#a5f3fc" stroke-width="4"/><rect x="248.0" y="718" width="124" height="104" rx="14" fill="#ffffff" stroke="#a5f3fc" stroke-width="4"/><rect x="282.0" y="748" width="56" height="44" rx="8" fill="#a5f3fc" opacity="0.2"/></g>
<text x="310.0" y="857.0" text-anchor="middle" class="small">量化部署</text>
<line x1="455" y1="395" x2="570" y2="395" stroke="#2563eb" stroke-width="4" fill="none" marker-end="url(#arrow-blue)"/>
<line x1="860" y1="395" x2="975" y2="395" stroke="#ea580c" stroke-width="4" fill="none" marker-end="url(#arrow-orange)"/>
<line x1="1265" y1="395" x2="1380" y2="395" stroke="#16a34a" stroke-width="4" fill="none" marker-end="url(#arrow-green)"/>
<path d="M 1525,485 L 1525,620 L 1525,715" stroke="#16a34a" stroke-width="4" fill="none" marker-end="url(#arrow-green)"/>
<line x1="1380" y1="805" x2="1265" y2="805" stroke="#ea580c" stroke-width="4" fill="none" marker-end="url(#arrow-orange)"/>
<line x1="975" y1="805" x2="860" y2="805" stroke="#2563eb" stroke-width="4" fill="none" marker-end="url(#arrow-blue)"/>
<line x1="570" y1="805" x2="455" y2="805" stroke="#7c3aed" stroke-width="4" fill="none" marker-end="url(#arrow-purple)"/>
<path d="M 165,805 L 95,805 L 95,395 L 165,395" stroke="#0891b2" stroke-width="4" fill="none" stroke-dasharray="10,8" marker-end="url(#arrow-cyan)"/>
<text x="1024" y="547.0" text-anchor="middle" class="label">端侧识别</text>
<text x="1024" y="589.0" text-anchor="middle" class="label">本地缓存</text>
<text x="1024" y="631.0" text-anchor="middle" class="label">离线优化</text>
<text x="1024" y="673.0" text-anchor="middle" class="label">量化回部署</text>
</svg>